<svg width="534" height="534" viewBox="0 0 534 534" fill="none" xmlns="http://www.w3.org/2000/svg">
<circle cx="267" cy="267" r="250" stroke="white" stroke-width="34" stroke-linecap="round" stroke-linejoin="round" stroke-dasharray="200 200"/>
<rect x="192" y="135" width="150" height="130" rx="24" fill="white"/>
<rect x="215" y="192" width="104" height="17" rx="8.5" fill="#212130"/>
<path d="M203.5 280L121 337.5V343.5L123.5 353.5L128 364.5L131 373.5L135 381L140.5 390.5L148 402.5L153.5 410L163 419.5L165 422L167.5 424.5L172 428.5L173.5 429.5H175.5V347V345L177 343.5L178.5 342H181H183L184.5 343.5L186 344.5L186.5 346.5V439.5L193 441.5L206 448L216.5 452L224 454.5L226.5 455L230 456L234.5 456.5L238 457.5L241.5 458L244 458.5L247 459H269.5H286H292L302 457L317.5 452L330 448L336.5 444.5L342.5 441.5L345 439.5L346.5 437.5V435V346.5L348 344.5L349.5 343H353H355.5L356.5 344.5L358 346.5V429.5H360L373 418L384.5 404.5L397.5 386L405.5 368.5L410 353L412.5 337L331 280L273.5 327V427L272.5 429.5L271 430.5H268.5H266.5L264.5 429.5L263 427L262 327L203.5 280Z" fill="white"/>
</svg>
