<svg width="708" height="708" viewBox="0 0 708 708" fill="none" xmlns="http://www.w3.org/2000/svg">
<path d="M391.431 171C414.058 171 425.372 171 432.401 178.029C439.431 185.059 439.431 196.373 439.431 219V270.207C439.431 292.834 439.431 304.148 432.401 311.178C425.372 318.207 414.058 318.207 391.431 318.207H318.134C295.506 318.207 284.193 318.207 277.163 311.178C270.134 304.148 270.134 292.834 270.134 270.207V219C270.134 196.373 270.134 185.059 277.163 178.029C284.193 171 295.506 171 318.134 171H391.431ZM305.605 235.561C300.298 235.561 295.996 239.863 295.996 245.17C295.996 250.477 300.299 254.779 305.605 254.779H403.959C409.266 254.779 413.568 250.477 413.568 245.17C413.568 239.863 409.266 235.561 403.959 235.561H305.605Z" fill="white"/>
<path d="M283.113 335.192L190 400.303V407.097L192.822 418.421L197.901 430.877L201.286 441.068L205.801 449.561L212.009 460.318L220.473 473.906L226.681 482.399L237.403 493.157L239.66 495.987L242.482 498.818L247.561 503.348L249.254 504.48H251.511V411.06V408.796L253.204 407.097L254.897 405.399H257.719H259.976L261.669 407.097L263.362 408.23L263.926 410.494V515.804L271.262 518.068L285.935 525.429L297.786 529.958L306.25 532.789L309.072 533.355L313.022 534.488L318.101 535.054L322.051 536.186L326.002 536.752L328.823 537.319L332.209 537.885H357.604H376.226H382.998L394.285 535.62L411.779 529.958L425.887 525.429L433.223 521.466L439.995 518.068L442.816 515.804L444.509 513.539V510.708V410.494L446.202 408.23L447.895 406.531H451.846H454.667L455.796 408.23L457.489 410.494V504.48H459.746L474.419 491.458L487.398 476.171L502.07 455.222L511.099 435.406L516.178 417.855L519 399.737L427.015 335.192L362.118 388.413V501.649L360.99 504.48L359.297 505.613H356.475H354.218L351.961 504.48L350.268 501.649L349.139 388.413L283.113 335.192Z" fill="white"/>
<rect x="18.8313" y="354" width="474" height="474" rx="237" transform="rotate(-45 18.8313 354)" stroke="white" stroke-width="26" stroke-dasharray="250 50"/>
</svg>
